# xmcd CD database file
#
# Track frame offsets:
#	150
#	10315
#	23272
#	38260
#	51650
#	63362
#	76242
#	91922
#	107115
#	121427
#	133847
#	145350
#	160437
#	173907
#	190105
#	203972
#	219317
#	231747
#	244510
#
# Disc length: 3443 seconds
#
# Revision: 0
# Processed by: cddbd v1.5PL3 Copyright (c) Steve Scherf et al.
# Submitted via: CDex 1.51
#
DISCID=070d7113
DTITLE=Lucio Alves - Lucio Alves - Mestres da MPB
DYEAR=1994
DGENRE=MPB
TTITLE0=Valsa de uma cidade-Ismael Neto e Ant Maria
TTITLE1=Teresa da praia-Tom Jobim e Billy Blanco
TTITLE2=Sabado em Copacabana-Dorival e Carlos Guinle
TTITLE3=Nova ilusao-Pedro Caetano e Claudionor Cruz
TTITLE4=Amargura-Radames Gnatalli e Alberto Ribeiro
TTITLE5=Terminemos agora-Gilberto Milfont
TTITLE6=Casinha pequena - Lucio Alves
TTITLE7=Na paz do Senhor-Jose Maria de Abreu e Luiz Peixoto
TTITLE8=Blue gardenia-Bob Russel, Lester Lee e Ant Carlos
TTITLE9=Cansada de tudo-Alberto Ribeiro e Osvaldo Sa
TTITLE10=Solidao - Farres e Gilbert
TTITLE11=Tormento - Pedro Caetano e Claudionor Cruz
TTITLE12=Se o tempo entendesse-Marino Pinto e Mario Rossi
TTITLE13=Buenos Aires -Lucio Alves
TTITLE14=Seja feliz adeus-Benny Wolkoff e Luiz Bittencourt
TTITLE15=Terminemos -Fernando Lobo e Paulo Soledade
TTITLE16=Rugas -Newton Teixeira e David Nasser
TTITLE17=Barra da Tijuca -Norival Reis e Irani de Oliveira
TTITLE18=Tudo acabou -Gilberto Milfont e Milton de Oliveira
EXTD=YEAR: 1994
EXTT0=
EXTT1=
EXTT2=
EXTT3=
EXTT4=
EXTT5=
EXTT6=
EXTT7=
EXTT8=
EXTT9=
EXTT10=
EXTT11=
EXTT12=
EXTT13=
EXTT14=
EXTT15=
EXTT16=
EXTT17=
EXTT18=
PLAYORDER=
